<svg xmlns="http://www.w3.org/2000/svg" viewBox="0 0 48 48" fill="none">
  <!-- Gear Body -->
  <path d="M26.5,4h-5l-1.3,4.8c-1.3,0.4-2.5,1-3.6,1.8l-4.4-2.3l-3.5,3.5l2.3,4.4c-0.8,1.1-1.4,2.3-1.8,3.6L4,21.5v5l4.8,1.3c0.4,1.3,1,2.5,1.8,3.6l-2.3,4.4l3.5,3.5l4.4-2.3c1.1,0.8,2.3,1.4,3.6,1.8L21.5,44h5l1.3-4.8c1.3-0.4,2.5-1,3.6-1.8l4.4,2.3l3.5-3.5l-2.3-4.4c0.8-1.1,1.4-2.3,1.8-3.6L44,26.5v-5l-4.8-1.3c-0.4-1.3-1-2.5-1.8-3.6l2.3-4.4l-3.5-3.5l-4.4,2.3c-1.1-0.8-2.3-1.4-3.6-1.8L26.5,4z" fill="#EEF2FF" stroke="#2563EB" stroke-width="2" stroke-linejoin="round" />
  
  <!-- Center Cutout (White) -->
  <circle cx="24" cy="24" r="10" fill="#FFFFFF" stroke="#2563EB" stroke-width="2" />

  <!-- Lightning Bolt (#2563EB) -->
  <polygon points="25,16 18,24 23,24 22,32 30,23 25,23" fill="#2563EB" />
</svg>
